<svg xmlns="http://www.w3.org/2000/svg" viewBox="0 0 124.81 89"><defs><style>.cls-1{fill:#ed1c24;}.cls-2{fill:#fbb03b;}</style></defs><title>open_logo_alone</title><g id="Layer_2" data-name="Layer 2"><g id="Layer_1-2" data-name="Layer 1"><path class="cls-1" d="M82.76,21.8,71.63,32.92A29.24,29.24,0,0,1,74,44.5,29.5,29.5,0,1,1,44.5,15a29.19,29.19,0,0,1,11.57,2.37L67.2,6.24A44.53,44.53,0,1,0,82.76,21.8Z"/><path class="cls-2" d="M124.81,38.31H113.56V7.5a7,7,0,0,0-7-7H81.5a7,7,0,0,0-5,2.05L63.3,15.8l9.9,9.9L84.4,14.5H99.56V88h14V47.31h11.25Z"/></g></g></svg>